<svg xmlns="http://www.w3.org/2000/svg" xmlns:xlink="http://www.w3.org/1999/xlink" id="Layer_1" x="0px" y="0px" width="340.666px" height="155.333px" viewBox="0 0 340.666 155.333" xml:space="preserve"><g>	<path fill-rule="evenodd" clip-rule="evenodd" fill="#A9A8A9" d="M105.626,4.63C85.961,6.845,70.566,23.572,70.566,43.788  c0,5.09,1.002,9.914,2.712,14.338C81.035,38.356,92.116,20.522,105.626,4.63L105.626,4.63z M113.079,4.521  c0.706,0.053,1.465,0.111,2.182,0.219c-15.231,22.432-25.363,47.352-31.45,68.674c-1.17-0.998-2.222-2.051-3.219-3.162  c8.258-23.914,17.666-44.799,32.456-65.73H113.079L113.079,4.521z M98.094,81.554c-1.274-0.386-2.544-0.885-3.831-1.385  c4.547-22.645,10.254-47.846,26.818-74.207c0.496,0.165,0.997,0.334,1.442,0.49C108.45,30.052,101.971,58.296,98.094,81.554  L98.094,81.554z"></path>	<path fill-rule="evenodd" clip-rule="evenodd" fill="#001A71" d="M134.037,12.665c-3.053,5.869-4.159,11.793-4.159,17.72  c0.059,8.745,1.768,16.556,4.268,25.029c1.83,6.089,0.279,13.231-0.836,20.104c9.701-7.147,16.068-18.715,16.068-31.73  C149.377,31.154,143.342,19.859,134.037,12.665L134.037,12.665L134.037,12.665z M109.668,83.217  c1.046-34.778,5.872-57.653,17.604-74.823c0.727,0.391,1.39,0.727,2.055,1.111c-3.327,5.537-5.264,11.238-6.428,17.836  c-1.717,9.57-1.541,21.373-1.82,31.729c-0.283,9.865-5.325,17.504-9.859,24.089c-0.388,0.059-0.828,0.059-1.228,0.059  C109.891,83.217,109.782,83.217,109.668,83.217L109.668,83.217z"></path>	<path fill-rule="evenodd" clip-rule="evenodd" fill="#001A71" d="M327.822,99.981c-3.549,0-6.449-2.88-6.449-6.45  c0-3.56,2.9-6.446,6.449-6.446c3.57,0,6.457,2.887,6.457,6.446C334.279,97.102,331.393,99.981,327.822,99.981L327.822,99.981z   M327.822,86.28c-3.994,0-7.254,3.245-7.254,7.251c0,4.013,3.26,7.265,7.254,7.265c4.012,0,7.266-3.252,7.266-7.265  C335.088,89.525,331.834,86.28,327.822,86.28z"></path>	<path fill-rule="evenodd" clip-rule="evenodd" fill="#001A71" d="M329.365,91.856c0-0.21-0.025-0.386-0.102-0.551  c-0.07-0.159-0.193-0.303-0.367-0.408c-0.135-0.1-0.309-0.16-0.494-0.199c-0.195-0.035-0.434-0.053-0.689-0.053h-1.137v2.752h0.969  c0.309,0,0.586-0.036,0.811-0.088c0.232-0.052,0.432-0.151,0.578-0.299c0.156-0.143,0.26-0.292,0.342-0.467  C329.34,92.36,329.365,92.136,329.365,91.856L329.365,91.856z M331.623,97.082h-1.248l-2.443-2.882h-1.355v2.882h-0.979v-7.274  h2.051c0.432,0,0.805,0.027,1.094,0.084c0.301,0.061,0.566,0.154,0.805,0.305c0.256,0.168,0.461,0.377,0.604,0.628  c0.152,0.254,0.23,0.571,0.23,0.958c0,0.527-0.133,0.965-0.396,1.325c-0.271,0.354-0.631,0.622-1.096,0.804L331.623,97.082z"></path>	<path fill-rule="evenodd" clip-rule="evenodd" fill="#001A71" d="M236.598,102.322l-3.824,15.12  c-0.496,3.93-4.871,10.797-8.027,10.744c-3.992,0.22-4.16-3.774-4.096-6.697c0-2.055,4.205-20.546,13.234-21.768  C236.266,99.442,237.487,99.722,236.598,102.322L236.598,102.322z M240.915,128.573c-2.163-1.497-0.16-5.979,0.225-8.025  l6.212-24.534h-12.14c-14.509-1.222-25.197,15.892-23.596,28.013c0.836,8.754,8.149,13.898,16.893,8.207  c1.332-0.946,2.554-2.104,3.551-3.603c0,0,0,0,0,0.052c0,3.217,2.373,5.871,5.312,5.871c1.49,0,3.717-0.388,4.934-1.053  c0.996-0.503,1.983-1.381,2.981-2.6c1.004-1.228,2-2.495,2.836-3.881c0.494-0.774,1.049-1.662,1.66-2.711l-3.492-1.826  C244.076,126.026,243.411,128.128,240.915,128.573L240.915,128.573z M272.934,122.149l4.314,2.492c0,0-5.381,9.912-15.621,9.912  c-10.301,0-14.064-12.79-11.844-19.662c2.148-8.087,6.693-14.178,13.846-17.942c11.627-5.1,15.947,1.885,16.502,3.765  c0.604,1.889,1.215,9.152-4.162,10.31c-5.361,1.209-4.822-5.048-4.822-4.772c0.07,0.223,2.783-4.867,0.674-6.145  c-2.99-0.833-5.1,0.563-6.533,1.875c0,0-4.541,5.718-5.871,10.586c-1.273,4.926-2.432,11.572-0.393,13.793  c1.943,1.938,2.766,4.098,9.539,1.325C271.268,125.528,273.48,122.317,272.934,122.149L272.934,122.149z M176.895,122.368  l-3.152-1.27c-1.17,2.324-2.604,4.651-4.327,6.98c-1.155,1.488-2.264,2.434-3.196,2.659c-1.058,0.054-1.613-0.28-1.73-0.942  c-0.104-0.451-0.052-1.223,0.17-2.441c0.501-2.049,1.219-4.761,1.991-8.082c0.777-3.322,1.44-6.312,2.051-8.917  c0.552-2.722,1-4.763,1.164-6.207c0.161-2.099,0.161-3.651-0.059-4.655c-0.218-1.424-0.933-2.544-1.993-3.428  c-1.048-0.836-2.434-1.223-4.036-1.105c-2.44,0.107-5.099,1.658-7.868,4.648c-0.997,1.215-1.827,2.27-2.383,3.107  c-0.612,0.825-1.104,1.657-1.604,2.539c-0.451,0.832-1.055,1.939-1.831,3.267l3.216,1.444c2.71-5.16,4.762-8.088,6.204-8.698h0.269  c0.669-0.052,1.054,0.116,1.112,0.392c0.273,0.219,0.496,0.663,0.663,1.435c0.058,0.447-0.11,1.659-0.495,3.711l-4.156,17.729  c-0.604,2.934-0.887,4.979-0.829,6.143c0.328,1.557,1.113,2.824,2.376,3.825c1.226,0.943,2.713,1.384,4.55,1.326  c1.827-0.109,3.486-0.663,4.923-1.558c1.443-0.929,2.713-2.095,3.759-3.428c1.06-1.382,2.004-2.764,2.835-4.205  C175.293,125.194,176.124,123.757,176.895,122.368L176.895,122.368z M292.592,119.715c-1.17,0.273-2.051-0.607-1.607-1.669  c1.887-6.469,4.768-12.23,11.41-15.283c4.146-1.547,6.977-1.045,6.803,3.99C307.211,113.731,300.896,117.442,292.592,119.715  L292.592,119.715z M320.395,131.069l-3.879,4.816c-2.713,3.264-5.594,3.711-8.758,0c-3.486-4.264-6.143-8.586-7.416-12.903  c7.641-3.045,13.949-7.92,18.445-15.399c3.717-8.693-3.492-14.679-12.805-11.633c-4.09,1.5-7.801,3.877-11.396,6.707l4.207-18.111  c0.559-2.606-0.662-3.705-3.434-3.652H178.887c1.608,1.934,1.725,4.258,1.057,6.806h106.224c1.602-0.059,2.098,0.944,1.492,2.997  l-12.682,54.488h9.686l4.488-19.656c3.439,6.705,7.762,12.351,12.793,17.168c6.648,5.145,11.473,3.268,15.682-1.056  c2.324-2.324,4.369-5.259,6.195-8.693L320.395,131.069L320.395,131.069z M201.86,108.471  c-1.352,20.618-15.125,21.937-15.125,21.937l7.91-30.914C201.962,100.162,202.017,105.429,201.86,108.471L201.86,108.471z   M195.224,96.122c6.211-0.613,11.363,2.66,13.125,5.319c3.717,5.589,2.611,14.115-0.271,20.216  c-3.76,7.969-12.128,12.896-22.648,12.896l-2.436,10.631h-8.922l10.463-43.083c-3.421,1.215-5.473,3.044-7.575,5.365l-3.269-2.82  c3.159-3.431,7.03-6.812,12.619-8.305l1.049-4.038l8.59,0.215L195.224,96.122L195.224,96.122z M169.537,94.065  c1.712-0.277,3.209-1.209,4.425-2.822c1.157-1.486,1.775-3.266,1.71-5.148c0-1.877-0.648-3.428-1.883-4.594  c-1.319-1.162-2.869-1.662-4.64-1.388c-1.722,0.282-3.219,1.163-4.441,2.714c-1.208,1.6-1.762,3.379-1.704,5.309  c0.045,1.948,0.774,3.557,2.042,4.721C166.267,93.956,167.757,94.409,169.537,94.065L169.537,94.065z M103.242,99.722  c2.385-0.279,3.55,0,2.72,2.601l-3.826,15.12c-0.492,3.93-4.872,10.797-8.026,10.744c-3.988,0.22-4.154-3.774-4.154-6.697  C89.956,121.489,93.549,101.204,103.242,99.722L103.242,99.722z M80.984,124.026c0.822,8.754,8.137,13.898,16.887,8.207  c1.328-0.946,2.557-2.104,3.546-3.603c0,0,0,0,0,0.052c0,3.217,2.38,5.871,5.312,5.871c1.501,0,3.708-0.388,4.933-1.053  c1-0.503,1.993-1.381,2.989-2.6c1.001-1.228,1.934-2.495,2.821-3.881c0.495-0.774,1.055-1.662,1.666-2.711l-3.486-1.826  c-2.223,3.543-2.938,5.645-5.376,6.09c-2.157-1.497-0.168-5.979,0.226-8.025l6.196-24.534h-12.182  C90.063,94.792,79.314,111.905,80.984,124.026L80.984,124.026z M73.726,136.712c-1.389,0.055-2.102-0.826-1.714-2.324  l11.409-48.676c1.268-6.26-6.258-7.586-11.357-4.436c-5.755,3.6-10.469,8.701-14.73,14.4l0.826-10.629  c0.338-4.935-3.376-7.091-7.312-4.935c-17.717,9.524-30.123,27.747-40.37,55.332c-1.488,6.636,0.614,9.685,5.656,9.739h7.743  l2.502-7.916c-4.598,0.109-10.804,0.725-8.142-5.708c6.2-15.779,14.894-29.785,27.3-41.2c1.218-1.051,2.155-0.768,1.936,0.604  l-13.788,54.22h11.465l5.151-23.695c3.544-13.35,9.634-24.424,19.438-32.18c1.711-1.109,2.598-0.505,2.103,1.888l-10.853,44.575  c-1.383,6.309,1.055,9.084,6.149,9.412h51.936c-2.038-2.431-3.704-5.147-4.698-8.199L73.726,136.712L73.726,136.712z   M136.027,95.677c3.221,9.028,9.53,14.456,14.733,25.142c3.428,7.196,2.217,15.067-4.095,21.655  c-6.26,5.542-13.688,5.92-21.939,2.711c-7.196-4.479-8.356-9.739-5.363-16.502c2.373-4.43,10.404-3.873,10.177,1.66  c-0.267,4.211-1.046,5.264-0.985,5.543c-0.061,4.98,2.603,6.977,8.245,5.924c6.432-3.654,7.653-10.629,3.83-16.338  c-5.208-6.756-11.131-16.512-14.678-25.426c-4.215-12.286,9.195-23.139,21.373-20.037c7.313,1.268,10.521,5.812,10.252,12.954  c-2.496,7.806-13.074,4.985-11.029-1.331c0.668-1.497,1-3.094,0.559-4.976c-2.103-3.224-5.763-3.604-8.585-1.608  C135.257,87.151,134.919,90.862,136.027,95.677z"></path></g></svg>